<?xml version="1.0" encoding="iso-8859-1"?>
<!-- Generator: Adobe Illustrator 19.0.0, SVG Export Plug-In . SVG Version: 6.00 Build 0)  -->
<svg version="1.1" width="30" height="30" id="Capa_1" xmlns="http://www.w3.org/2000/svg" xmlns:xlink="http://www.w3.org/1999/xlink" x="0px" y="0px"
	 viewBox="0 0 362.68 362.68" style="enable-background:new 0 0 362.68 362.68;" xml:space="preserve">
<path style="fill:#EFA66F;" d="M90.68,199.4c-33.137,0-60-26.863-60-60s26.863-60,60-60s60,26.863,60,60S123.817,199.4,90.68,199.4z
	 M111.68,145.64c-7.798,0-14.12,6.322-14.12,14.12c0,7.798,6.322,14.12,14.12,14.12c7.798,0,14.12-6.322,14.12-14.12c0,0,0,0,0,0
	C125.778,151.971,119.469,145.662,111.68,145.64z M69.64,145.64c-7.798,0-14.12,6.322-14.12,14.12c0,7.798,6.322,14.12,14.12,14.12
	c7.798,0,14.12-6.322,14.12-14.12c0,0,0,0,0,0C83.738,151.971,77.429,145.662,69.64,145.64z M111.68,104.68
	c-7.798,0-14.12,6.322-14.12,14.12c0,7.798,6.322,14.12,14.12,14.12c7.798,0,14.12-6.322,14.12-14.12c0,0,0,0,0,0
	C125.778,111.011,119.469,104.702,111.68,104.68z M69.64,104.68c-7.798,0-14.12,6.322-14.12,14.12c0,7.798,6.322,14.12,14.12,14.12
	c7.798,0,14.12-6.322,14.12-14.12c0,0,0,0,0,0C83.738,111.011,77.429,104.702,69.64,104.68z"/>
<g>
	<path style="fill:#FFE094;" d="M90.68,222.88c-46.149,0-83.56-37.411-83.56-83.56c0-46.149,37.411-83.56,83.56-83.56
		c46.133,0,83.538,37.387,83.56,83.52C174.218,185.426,136.826,222.836,90.68,222.88z M90.68,77.16
		c-34.33,0-62.16,27.83-62.16,62.16s27.83,62.16,62.16,62.16c34.33,0,62.16-27.83,62.16-62.16c0-0.013,0-0.027,0-0.04
		c-0.154-34.234-27.926-61.916-62.16-61.96V77.16z"/>
	<path style="fill:#FFE094;" d="M264.76,333.12c-33.137,0-60-26.863-60-60s26.863-60,60-60s60,26.863,60,60
		S297.897,333.12,264.76,333.12L264.76,333.12z M285.76,279.36c-7.798,0.023-14.102,6.363-14.079,14.161
		c0.023,7.798,6.363,14.102,14.161,14.079c7.798-0.023,14.102-6.363,14.079-14.161c0-0.04,0-0.079-0.001-0.119
		c-0.109-7.727-6.393-13.939-14.12-13.96H285.76z M243.72,279.36c-7.798,0.045-14.084,6.403-14.039,14.201
		s6.403,14.084,14.201,14.039s14.084-6.403,14.039-14.201c0-0.026,0-0.053-0.001-0.079c-0.109-7.742-6.417-13.961-14.16-13.96
		H243.72z M285.8,238.4c-7.798,0-14.12,6.322-14.12,14.12s6.322,14.12,14.12,14.12c7.798,0,14.12-6.322,14.12-14.12l0,0
		C299.898,244.731,293.589,238.422,285.8,238.4z M243.76,238.4c-7.798,0-14.12,6.322-14.12,14.12s6.322,14.12,14.12,14.12
		c7.798,0,14.12-6.322,14.12-14.12l0,0C257.858,244.731,251.549,238.422,243.76,238.4z"/>
</g>
<g>
	<path style="fill:#EFA66F;" d="M264.76,356.6c-46.149,0-83.56-37.411-83.56-83.56s37.411-83.56,83.56-83.56
		s83.56,37.411,83.56,83.56C348.254,319.161,310.881,356.534,264.76,356.6z M264.76,210.88c-34.33,0.022-62.142,27.87-62.12,62.2
		s27.87,62.142,62.2,62.12c34.314-0.022,62.12-27.846,62.12-62.16c-0.022-34.343-27.857-62.178-62.2-62.2V210.88z"/>
	<path style="fill:#EFA66F;" d="M286.8,124.32c-27.305,0-49.44-22.135-49.44-49.44s22.135-49.44,49.44-49.44
		s49.44,22.135,49.44,49.44C336.196,102.167,314.087,124.276,286.8,124.32z M304.16,79.92c-6.627,0-12,5.373-12,12s5.373,12,12,12
		s12-5.373,12-12S310.787,79.92,304.16,79.92z M269.44,79.92c-6.627,0-12,5.373-12,12s5.373,12,12,12s12-5.373,12-12
		C281.44,85.293,276.068,79.92,269.44,79.92c-0.026,0-0.053,0-0.08,0H269.44z M304.16,46.12c-6.627,0-12,5.373-12,12
		c0,6.627,5.373,12,12,12s12-5.373,12-12C316.16,51.493,310.787,46.12,304.16,46.12z M269.36,46.12c-6.627,0-12,5.373-12,12
		c0,6.627,5.373,12,12,12s12-5.373,12-12C281.36,51.493,275.987,46.12,269.36,46.12z"/>
</g>
<path style="fill:#FFE094;" d="M286.8,143.72c-38.019,0-68.84-30.821-68.84-68.84S248.781,6.04,286.8,6.04s68.84,30.821,68.84,68.84
	l0,0C355.596,112.881,324.801,143.676,286.8,143.72z M286.8,23.4c-28.454,0-51.52,23.066-51.52,51.52s23.066,51.52,51.52,51.52
	c28.454,0,51.52-23.066,51.52-51.52l0,0c0-28.46-23.06-51.538-51.52-51.56V23.4z"/>
<g>
	<path style="fill:#3D2B1A;" d="M90.68,49.68c-49.507,0-89.64,40.133-89.64,89.64s40.133,89.64,89.64,89.64
		s89.64-40.133,89.64-89.64c0-0.013,0-0.027,0-0.04C180.254,89.807,140.153,49.724,90.68,49.68z M90.68,218.88
		c-43.94,0-79.56-35.62-79.56-79.56c0-43.94,35.62-79.56,79.56-79.56c43.924,0,79.538,35.596,79.56,79.52
		C170.218,183.217,134.617,218.836,90.68,218.88z"/>
	<path style="fill:#3D2B1A;" d="M90.68,73.32c-36.539,0-66.16,29.621-66.16,66.16s29.621,66.16,66.16,66.16
		c36.539,0,66.16-29.621,66.16-66.16c0-0.067,0-0.133,0-0.2C156.686,102.837,127.123,73.364,90.68,73.32z M90.68,195.56
		c-30.928,0-56-25.072-56-56s25.072-56,56-56s56,25.072,56,56c-0.088,30.865-25.134,55.84-56,55.84V195.56z"/>
	<path style="fill:#3D2B1A;" d="M69.64,100.68c-10.007,0-18.12,8.113-18.12,18.12c0,10.007,8.113,18.12,18.12,18.12
		s18.12-8.113,18.12-18.12v0C87.738,108.802,79.638,100.702,69.64,100.68z M69.64,126.88c-4.418,0-8-3.582-8-8s3.582-8,8-8
		s8,3.582,8,8S74.058,126.88,69.64,126.88z"/>
	<path style="fill:#3D2B1A;" d="M111.68,100.68c-10.007,0-18.12,8.113-18.12,18.12s8.113,18.12,18.12,18.12s18.12-8.113,18.12-18.12
		v0C129.778,108.802,121.678,100.702,111.68,100.68z M111.68,126.88c-4.418,0-8-3.582-8-8s3.582-8,8-8s8,3.582,8,8
		S116.098,126.88,111.68,126.88z"/>
	<path style="fill:#3D2B1A;" d="M69.64,141.64c-10.007,0-18.12,8.113-18.12,18.12c0,10.007,8.113,18.12,18.12,18.12
		s18.12-8.113,18.12-18.12v0C87.738,149.762,79.638,141.662,69.64,141.64z M69.64,167.84c-4.418,0-8-3.582-8-8s3.582-8,8-8
		s8,3.582,8,8S74.058,167.84,69.64,167.84z"/>
	<path style="fill:#3D2B1A;" d="M111.68,141.64c-10.007,0-18.12,8.113-18.12,18.12s8.113,18.12,18.12,18.12s18.12-8.113,18.12-18.12
		v0C129.778,149.762,121.678,141.662,111.68,141.64z M111.68,167.84c-4.418,0-8-3.582-8-8s3.582-8,8-8s8,3.582,8,8
		S116.098,167.84,111.68,167.84z"/>
	<path style="fill:#3D2B1A;" d="M264.8,183.4c-49.507,0-89.64,40.133-89.64,89.64s40.133,89.64,89.64,89.64
		s89.64-40.133,89.64-89.64v0C354.396,223.551,314.288,183.444,264.8,183.4L264.8,183.4z M264.8,352.6
		c-43.94,0-79.56-35.62-79.56-79.56s35.62-79.56,79.56-79.56s79.56,35.62,79.56,79.56C344.316,316.961,308.721,352.556,264.8,352.6z
		"/>
	<path style="fill:#3D2B1A;" d="M264.8,206.84c-36.539,0-66.16,29.621-66.16,66.16s29.621,66.16,66.16,66.16
		c36.524,0,66.138-29.596,66.16-66.12C330.938,236.503,301.336,206.884,264.8,206.84L264.8,206.84z M264.8,329.08
		c-30.928,0-56-25.072-56-56s25.072-56,56-56s56,25.072,56,56c0.022,30.928-25.032,56.018-55.96,56.04c-0.013,0-0.027,0-0.04,0
		V329.08z"/>
	<path style="fill:#3D2B1A;" d="M243.76,234.4c-10.007,0-18.12,8.113-18.12,18.12s8.113,18.12,18.12,18.12
		c10.007,0,18.12-8.113,18.12-18.12l0,0C261.858,242.522,253.758,234.422,243.76,234.4z M243.76,260.6c-4.418,0-8-3.582-8-8
		s3.582-8,8-8s8,3.582,8,8S248.178,260.6,243.76,260.6z"/>
	<path style="fill:#3D2B1A;" d="M285.8,234.4c-10.007,0-18.12,8.113-18.12,18.12s8.113,18.12,18.12,18.12
		c10.007,0,18.12-8.113,18.12-18.12l0,0C303.898,242.522,295.798,234.422,285.8,234.4z M285.8,260.6c-4.418,0-8-3.582-8-8
		s3.582-8,8-8s8,3.582,8,8S290.218,260.6,285.8,260.6z"/>
	<path style="fill:#3D2B1A;" d="M243.76,275.36c-10.007,0.022-18.102,8.153-18.079,18.161c0.022,10.007,8.153,18.102,18.161,18.079
		c10.007-0.022,18.102-8.153,18.079-18.161c0-0.04,0-0.079-0.001-0.119C261.81,283.369,253.712,275.359,243.76,275.36z
		 M243.76,301.56c-4.418,0-8-3.582-8-8s3.582-8,8-8s8,3.582,8,8S248.178,301.56,243.76,301.56z"/>
	<path style="fill:#3D2B1A;" d="M285.8,275.36c-10.007,0-18.12,8.113-18.119,18.121c0,10.007,8.113,18.12,18.121,18.119
		c10.007,0,18.12-8.113,18.119-18.121c0-0.053,0-0.106-0.001-0.159C303.811,283.384,295.736,275.381,285.8,275.36z M285.8,301.56
		c-4.418,0-8-3.582-8-8s3.582-8,8-8s8,3.582,8,8S290.218,301.56,285.8,301.56z"/>
	<path style="fill:#3D2B1A;" d="M286.8,149.76c41.355-0.022,74.862-33.565,74.84-74.92C361.618,33.485,328.075-0.022,286.72,0
		c-41.339,0.022-74.84,33.541-74.84,74.88C211.946,116.223,245.457,149.716,286.8,149.76z M286.8,10.04
		c35.81,0,64.84,29.03,64.84,64.84s-29.03,64.84-64.84,64.84s-64.84-29.03-64.84-64.84C221.982,39.079,250.999,10.062,286.8,10.04z"
		/>
	<path style="fill:#3D2B1A;" d="M286.8,130.4c30.663,0,55.52-24.857,55.52-55.52s-24.857-55.52-55.52-55.52
		s-55.52,24.857-55.52,55.52c0,0,0,0,0,0C231.302,105.534,256.146,130.378,286.8,130.4z M286.8,29.44
		c25.096,0,45.44,20.344,45.44,45.44s-20.344,45.44-45.44,45.44s-45.44-20.344-45.44-45.44c-0.044-25.118,20.282-45.516,45.4-45.56
		c0.013,0,0.027,0,0.04,0V29.44z"/>
	<path style="fill:#3D2B1A;" d="M269.36,73.84c8.837,0,16-7.163,16-16s-7.163-16-16-16s-16,7.163-16,16S260.523,73.84,269.36,73.84z
		 M269.36,52.2c3.203-0.022,5.818,2.557,5.84,5.76c0.022,3.203-2.557,5.818-5.76,5.84c-3.203,0.022-5.818-2.557-5.84-5.76
		c0-0.013,0-0.027,0-0.04C263.6,54.812,266.172,52.222,269.36,52.2z"/>
	<path style="fill:#3D2B1A;" d="M304.16,73.84c8.837,0,16-7.163,16-16s-7.163-16-16-16s-16,7.163-16,16S295.323,73.84,304.16,73.84z
		 M304.16,52.2c3.203,0,5.8,2.597,5.8,5.8s-2.597,5.8-5.8,5.8c-3.203,0-5.8-2.597-5.8-5.8c0,0,0,0,0,0
		C298.36,54.797,300.957,52.2,304.16,52.2z"/>
	<path style="fill:#3D2B1A;" d="M269.36,107.64c8.837,0,16-7.163,16-16s-7.163-16-16-16s-16,7.163-16,16
		S260.523,107.64,269.36,107.64z M269.36,86c3.203-0.022,5.818,2.557,5.84,5.76c0.022,3.203-2.557,5.818-5.76,5.84
		c-3.203,0.022-5.818-2.557-5.84-5.76c0-0.013,0-0.027,0-0.04C263.6,88.612,266.172,86.022,269.36,86z"/>
	<path style="fill:#3D2B1A;" d="M304.16,107.64c8.837,0,16-7.163,16-16s-7.163-16-16-16s-16,7.163-16,16
		S295.323,107.64,304.16,107.64z M304.16,86c3.203,0,5.8,2.597,5.8,5.8s-2.597,5.8-5.8,5.8c-3.203,0-5.8-2.597-5.8-5.8c0,0,0,0,0,0
		C298.36,88.597,300.957,86,304.16,86z"/>
</g>
<g>
</g>
<g>
</g>
<g>
</g>
<g>
</g>
<g>
</g>
<g>
</g>
<g>
</g>
<g>
</g>
<g>
</g>
<g>
</g>
<g>
</g>
<g>
</g>
<g>
</g>
<g>
</g>
<g>
</g>
</svg>
