<?xml version="1.0" encoding="iso-8859-1"?>
<!-- Generator: Adobe Illustrator 19.0.0, SVG Export Plug-In . SVG Version: 6.00 Build 0)  -->
<svg version="1.1" width="30" height="30" id="Capa_1" xmlns="http://www.w3.org/2000/svg" xmlns:xlink="http://www.w3.org/1999/xlink" x="0px" y="0px"
	 viewBox="0 0 421.269 421.269" style="enable-background:new 0 0 421.269 421.269;" xml:space="preserve">
<g>
	<path style="fill:#EFA66F;" d="M59.074,111.874c-29.161,0.017-52.814-23.609-52.83-52.77s23.609-52.814,52.77-52.83
		s52.814,23.609,52.83,52.77c0.008,14.007-5.549,27.442-15.45,37.35C86.521,106.332,73.082,111.906,59.074,111.874z"/>
	<path style="fill:#EFA66F;" d="M125.074,290.794l72.76-77.24l10.48,9.8l-113.56,107.4L125.074,290.794z"/>
	<path style="fill:#EFA66F;" d="M213.114,197.314l112.56-119.48c0.265-0.276,0.358-0.676,0.24-1.04c-2.213-7.042-0.368-14.73,4.8-20
		l41.24-41.4c7.777-7.623,20.223-7.623,28,0l6.12,6.12c7.623,7.777,7.623,20.223,0,28l-41.2,41.24
		c-3.725,3.773-8.818,5.879-14.12,5.84c-2.106-0.01-4.198-0.347-6.2-1h-0.28c-0.276-0.029-0.551,0.058-0.76,0.24l-120,112.92
		L213.114,197.314z M386.114,23.994c-2.401-0.013-4.707,0.938-6.4,2.64l-37.72,37.72c-3.535,3.526-3.542,9.25-0.016,12.784
		c0.005,0.005,0.01,0.01,0.016,0.016l2.36,2.36c3.528,3.514,9.232,3.514,12.76,0l37.64-37.72c3.514-3.528,3.514-9.232,0-12.76
		l-2.36-2.36c-1.667-1.669-3.922-2.617-6.28-2.64L386.114,23.994z"/>
</g>
<path style="fill:#FFFFFF;" d="M86.754,106.754l4-2.84c5.151-3.563,9.621-8.02,13.2-13.16l2.8-4l207.4,221.72l-5.64,5.64
	L86.754,106.754z"/>
<g>
	<path style="fill:#3D2B1A;" d="M419.914,412.794l-189.16-202.36l115.04-108.28c8.481,1.706,17.253-0.953,23.36-7.08l41.24-41.24
		c10.111-10.121,10.111-26.519,0-36.64l-6.12-6.12c-10.121-10.111-26.52-10.111-36.64,0l-41.2,41.28
		c-6.127,6.107-8.786,14.879-7.08,23.36l-107.64,114.24l-99.24-106.2c13.686-29.547,0.827-64.594-28.72-78.28
		S19.16,4.647,5.474,34.194s-0.827,64.594,28.72,78.28c15.718,7.28,33.842,7.28,49.56,0l107,99.84L4.914,409.474
		c-1.875,2.057-1.727,5.245,0.33,7.12c1.924,1.753,4.866,1.753,6.79,0l197.8-186.32l203,189.68c2.057,1.875,5.245,1.727,7.12-0.33
		c1.753-1.924,1.753-4.866,0-6.79L419.914,412.794z M328.594,80.594c1.256-1.338,1.685-3.254,1.12-5c-1.73-5.663-0.191-11.818,4-16
		l41.04-41.4c6.221-6.098,16.178-6.098,22.4,0l6.12,6.12c6.098,6.221,6.098,16.179,0,22.4l-41.24,41.24
		c-4.182,4.191-10.337,5.73-16,4c-1.746-0.565-3.662-0.136-5,1.12l-117.04,110.04l-5.24-5.76L328.594,80.594z M24.594,93.594
		C5.529,74.544,5.517,43.645,24.568,24.58s49.949-19.077,69.014-0.026s19.077,49.949,0.026,69.014
		c-9.156,9.163-21.58,14.31-34.534,14.306C46.136,107.906,33.721,102.764,24.594,93.594z M127.994,293.594l70-74.32l4.44,4
		L127.994,293.594z M213.674,220.074v-0.24c-0.128-0.1-0.262-0.194-0.4-0.28l-120.4-112.36c5.597-3.872,10.448-8.723,14.32-14.32
		l112.84,120.8l91.2,97.56L213.674,220.074z"/>
	<path style="fill:#3D2B1A;" d="M341.514,82.314c5.092,5.092,13.348,5.092,18.44,0l37.72-37.72c5.092-5.092,5.092-13.348,0-18.44
		l-2.36-2.36c-5.101-5.07-13.339-5.07-18.44,0l-37.68,37.76c-5.092,5.092-5.092,13.348,0,18.44L341.514,82.314z M346.274,68.674
		l37.72-37.72c1.139-1.019,2.861-1.019,4,0l2.36,2.36c1.037,1.132,1.037,2.868,0,4l-37.72,37.72c-1.146,1.001-2.854,1.001-4,0
		l-2.36-2.36C345.255,71.535,345.255,69.813,346.274,68.674z"/>
</g>
<g>
</g>
<g>
</g>
<g>
</g>
<g>
</g>
<g>
</g>
<g>
</g>
<g>
</g>
<g>
</g>
<g>
</g>
<g>
</g>
<g>
</g>
<g>
</g>
<g>
</g>
<g>
</g>
<g>
</g>
</svg>
